<svg viewBox="0 0 725 745" xmlns="http://www.w3.org/2000/svg">
    <path id="Circle" fill="#ffffff" fill-rule="evenodd" stroke="#000000" stroke-width="20" stroke-linecap="round" stroke-linejoin="round" d="M 709 372.5 C 709 181.133362 553.866638 26 362.5 26 C 171.133331 26 16 181.133362 16 372.5 C 16 563.866699 171.133331 719 362.5 719 C 553.866638 719 709 563.866699 709 372.5 Z" />
    <clipPath id="clipPath1">
        <path clip-rule="evenodd" d="M 681.846363 372.49999 C 681.846363 195.969014 538.739704 52.862355 362.208729 52.862355 C 185.677738 52.862355 42.571095 195.969014 42.571095 372.49999 C 42.571095 549.03098 185.677738 692.137624 362.208729 692.137624 C 538.739704 692.137624 681.846363 549.03098 681.846363 372.49999 Z" />
    </clipPath>
    <g id="Group" clip-path="url(#clipPath1)">
        <g id="g1">
            <path id="Path" fill="#000000" stroke="none" d="M 283.613312 -526.137573 C 279.843475 -522.367676 274.33371 -520.627808 264.764099 -520.627808 C 256.934448 -520.337769 247.654831 -518.597778 243.595001 -516.277954 C 239.535172 -513.958008 231.705475 -511.928101 226.195724 -511.928101 C 220.685944 -511.928101 213.436249 -509.898193 210.536346 -507.578369 C 207.346497 -505.258301 201.836716 -503.228516 198.356873 -503.228516 C 194.877014 -503.228516 190.527191 -501.198608 188.497269 -498.878662 C 186.467361 -496.558716 180.667618 -494.528931 175.447815 -494.528931 C 169.648087 -494.528931 165.298264 -492.788818 164.13829 -490.179077 C 163.268341 -487.859009 159.498489 -485.829224 155.43866 -485.829224 C 151.668808 -485.829224 147.898987 -483.799316 146.739014 -481.47937 C 145.869064 -479.159424 142.099213 -477.129639 138.039383 -477.129639 C 133.979538 -477.129639 129.919708 -475.679565 129.049759 -473.939697 C 127.889793 -472.199829 124.699936 -470.169922 121.800072 -469.009888 C 118.900169 -467.849976 107.88063 -458.570435 97.151077 -448.420776 C 79.171829 -431.311401 78.011879 -428.991577 81.49173 -423.771851 C 84.101631 -419.131958 85.551567 -394.772949 86.421532 -329.235718 C 87.291504 -271.238098 88.741432 -239.339417 90.771339 -236.729614 C 93.09124 -234.11969 94.541191 -191.201477 95.991142 -106.234985 C 97.151077 -35.187988 99.470978 29.189392 101.210907 40.78894 C 102.950844 52.098389 104.110809 78.777283 103.820793 100.236389 L 102.950844 139.094788 L 92.221291 139.964783 C 86.421532 140.544739 80.041801 142.864624 78.301865 145.18457 C 76.271942 147.504456 71.342163 149.244385 66.99234 149.244385 C 62.932507 149.244385 56.84277 151.274292 53.942883 153.594238 C 50.753014 155.914063 43.503311 157.944031 37.413574 157.944031 C 31.613806 157.944031 25.234085 159.973938 23.204166 162.293884 C 21.17425 164.613708 14.794513 166.643677 8.99476 166.643677 C 3.19499 166.643677 -4.054698 168.673584 -6.954582 170.99353 C -10.144451 173.313354 -15.654221 175.343323 -19.134071 175.343323 C -22.613924 175.343323 -26.963743 177.37323 -28.99366 179.693115 C -31.023579 182.013 -35.373398 184.042969 -38.853249 184.042969 C -42.043118 184.042969 -47.552887 186.072815 -50.452774 188.392761 C -53.642639 190.712646 -58.572433 192.742615 -61.182327 192.742615 C -64.082207 192.742615 -73.071831 199.412292 -81.191498 207.531982 C -95.690887 222.031311 -95.690887 222.031311 -90.761093 228.991089 C -87.861214 233.050903 -83.511398 236.240784 -80.901505 236.240784 C -78.291611 236.240784 -74.521767 238.27066 -72.491859 240.590607 C -70.171951 243.490448 -63.502228 244.94043 -52.482689 244.94043 C -43.493069 245.230408 -33.053497 246.970306 -28.99366 249.290253 C -23.483891 252.480072 -9.854467 253.350067 26.394035 253.640076 C 64.67244 253.640076 75.401993 254.51001 78.301865 257.69989 C 80.041801 260.019775 84.391617 262.339691 87.871468 262.919678 C 95.991142 264.07959 98.311043 279.738983 91.641319 285.538727 C 89.031418 287.568604 87.001503 293.658386 87.001503 300.038086 C 87.001503 306.127869 84.971581 312.507568 82.65168 314.537537 C 80.331779 316.567413 78.301865 321.78717 78.301865 326.136993 C 78.301865 330.486816 76.271942 335.706665 73.952042 337.736542 C 71.632141 339.766418 69.602226 345.566223 69.602226 350.786011 C 69.602226 356.005768 67.572311 361.805573 65.252403 363.835449 C 62.352539 366.445374 60.902588 372.825073 60.902588 385.294556 C 60.902588 406.753662 66.99234 420.383087 85.261581 439.2323 C 92.221291 446.482025 100.050972 456.051605 102.37088 460.981445 C 108.460632 473.450867 150.798859 514.62915 157.178589 514.62915 C 160.078461 514.62915 163.268341 516.659058 164.13829 518.978943 C 165.298264 521.298889 168.198135 523.328735 171.097992 523.328735 C 173.997894 523.328735 177.767715 525.358704 179.797638 527.678589 C 181.827545 529.998535 186.177368 532.028442 189.657242 532.028442 C 197.776917 532.318481 210.82637 543.628052 228.805618 566.537048 C 245.914902 588.286133 247.074844 596.115784 234.89537 606.555298 C 230.255569 610.325134 226.195724 615.544983 226.195724 617.574951 C 226.195724 619.604736 224.165802 622.794678 221.845901 624.824585 C 216.336121 629.464355 215.756149 652.083435 221.2659 650.343567 C 223.005844 649.473511 225.035767 643.673828 225.615723 637.294067 C 226.195724 628.014465 227.935623 625.114502 232.57547 623.95459 C 242.435028 621.344788 243.595001 623.95459 243.595001 646.283752 C 243.595001 664.842957 244.464951 668.032837 250.844696 674.122559 C 256.64447 679.632324 260.124298 680.502197 270.853851 679.342285 C 281.873383 677.892456 284.773285 678.762329 289.993073 684.272095 C 297.532745 692.101807 295.792816 701.961426 286.513184 704.571289 C 283.323334 705.731262 274.913696 705.151306 267.953979 703.121338 C 258.674377 700.511414 253.164597 700.221497 246.20488 702.831421 C 240.985077 704.571289 234.315369 706.021179 231.125519 706.021179 C 227.935623 706.021179 223.005844 708.051147 220.105972 710.661011 C 217.2061 713.270935 213.436249 714.430908 211.986298 713.270935 C 207.346497 710.661011 208.216446 690.651855 213.146271 683.982178 C 218.366043 677.0224 218.945999 653.823364 214.01622 653.823364 C 210.536346 654.113403 202.416718 668.902771 199.226822 681.372253 C 196.326965 691.521851 201.256744 732.990112 205.316589 734.440063 C 207.346497 735.020081 213.726242 730.670227 219.526001 724.870422 C 226.195724 718.200745 232.285446 714.720825 236.055298 715.300781 C 241.855072 716.170776 242.14505 718.200745 243.014999 747.489563 C 243.595001 772.428528 244.754944 779.098206 248.234802 780.548035 C 253.164597 782.288086 272.593781 777.358154 284.773285 770.978516 C 288.833099 768.658569 294.922852 766.91864 298.112732 766.91864 C 301.302582 766.91864 305.362427 764.888794 307.392334 762.278931 C 309.71225 759.669006 314.642029 758.218994 320.151825 758.79895 C 328.85144 759.669006 329.141418 759.958923 328.85144 774.168396 C 328.561462 781.998047 326.821533 795.047485 325.371582 803.167175 C 323.631653 810.996826 322.181732 840.575623 322.181732 868.704529 L 321.891754 919.452332 L 313.192108 927.861938 C 303.912476 936.851624 304.202484 940.911377 314.352051 940.911377 C 320.151825 940.911377 322.181732 943.811401 326.821533 957.440796 L 332.331299 974.260132 L 349.150604 975.130005 L 365.96991 976 L 364.519958 943.231384 C 363.649994 925.252136 361.620087 903.792969 360.170135 895.963379 C 358.430206 887.843689 356.980286 865.224548 356.690308 845.215393 C 356.690308 818.246582 355.530334 807.516968 352.340485 803.457092 C 347.410645 797.077454 346.54071 776.77832 350.890533 774.168396 C 354.950348 771.558533 368.579773 779.098206 372.34964 785.767883 C 374.089539 788.957764 377.279419 792.727661 379.309387 793.887573 C 381.049286 795.047485 382.789185 798.527466 382.789185 801.427246 C 382.789185 804.03717 386.559021 810.126892 391.488831 814.766663 C 396.128632 819.406494 400.188446 825.206177 400.188446 828.10614 C 400.188446 830.716064 402.218414 834.485901 404.538269 836.515747 C 406.858215 838.545715 408.888092 842.315552 408.888092 844.925476 C 408.888092 847.825317 412.947937 853.625122 417.587738 858.264832 C 422.517517 862.904724 426.287354 869.574402 426.287354 873.054321 C 426.287354 876.534119 428.317322 880.883911 430.637177 882.913879 C 432.957123 884.943726 434.987 890.163574 434.987 894.803406 C 434.987 909.88269 452.67627 920.612305 461.085907 910.752686 C 462.825897 908.432861 467.17572 906.112854 470.655579 905.532898 C 480.805115 904.083008 481.095123 887.263733 470.945557 876.824036 C 463.115875 868.704529 458.186096 860.874756 452.67627 848.985229 C 450.936371 845.505432 446.29657 840.575623 442.236725 837.675781 C 438.17688 835.065918 434.987 831.005981 434.987 828.686096 C 434.987 826.076172 425.417419 814.476746 414.107941 802.587219 C 392.648804 780.838135 386.269043 768.948608 392.068787 761.988831 C 394.678711 758.79895 396.128632 758.79895 400.188446 762.568848 C 402.79837 764.888794 406.568237 766.91864 408.598114 766.91864 C 410.628052 766.91864 415.847839 768.658569 419.907654 770.688477 C 424.257477 773.008362 432.087158 776.77832 437.306946 779.388123 C 442.816681 781.998047 449.776428 784.317932 453.256287 784.317932 C 456.446106 784.317932 463.405853 785.767883 468.62561 787.797852 C 485.154938 793.597534 487.184845 789.247681 487.184845 749.229431 C 487.184845 717.040833 486.894836 714.720825 481.675079 714.720825 C 475.29538 714.720825 466.885712 704.571289 466.885712 696.741577 C 466.885712 690.651855 460.505951 690.071899 452.386292 695.001648 C 447.456482 698.191528 445.136627 697.901489 438.17688 694.131775 C 432.667145 690.941895 428.6073 690.361816 425.127441 692.101807 C 416.427795 697.031616 416.427795 686.592102 425.127441 677.0224 C 429.767242 672.38269 434.117065 665.422974 434.987 661.942993 C 436.436981 656.433228 439.046844 654.983398 448.906494 654.40332 C 459.636017 653.533447 461.085907 652.663391 461.085907 646.573669 C 461.085907 641.93396 468.045654 632.654236 482.835022 617.864868 C 494.724548 605.685425 504.584106 594.085938 504.584106 591.76593 C 504.584106 589.736145 506.614075 586.256226 508.933929 584.226257 C 511.253876 582.196411 513.283752 577.556519 513.283752 573.786682 C 513.283752 570.016846 515.023743 565.666992 517.053589 564.217102 C 518.793579 562.477173 526.043213 556.67749 532.422974 551.167664 C 539.092651 545.36792 545.762451 540.728027 547.502319 540.728027 C 553.302124 540.728027 556.781921 551.457642 556.781921 568.856934 C 556.781921 578.716492 558.231934 587.416138 560.551819 589.446045 C 562.291748 591.476013 564.611633 602.495544 565.481567 614.094971 C 566.351563 625.69458 568.38147 634.974243 569.831421 634.974243 C 571.57135 634.974243 573.021301 626.564514 573.601257 616.124939 C 574.471191 596.115784 577.661072 589.446045 583.460815 595.24585 C 589.550598 601.335571 591.580505 599.015625 591.580505 587.126221 C 591.580505 574.946655 587.52063 572.046814 581.430908 580.456421 C 576.211182 587.416138 571.281372 582.486328 573.311279 572.336792 C 574.471191 566.537048 573.311279 562.187256 570.121399 558.417358 C 565.481567 553.48761 565.771545 552.907593 573.021301 547.977844 C 579.111023 543.917969 582.010925 543.628052 587.810608 546.237854 C 597.960266 550.877686 627.829041 550.297729 640.008484 545.077881 C 645.518311 542.757996 655.087891 540.728027 660.887634 540.728027 C 666.687439 540.728027 673.937073 538.698181 676.836975 536.378235 C 680.026855 534.05835 687.276489 532.028442 693.366272 532.028442 C 700.325989 532.028442 704.675781 530.578552 705.835754 527.678589 C 706.70575 525.358704 709.315613 523.328735 711.925476 523.328735 C 714.245422 523.328735 722.655029 519.268982 730.194702 514.62915 C 738.024414 509.699341 746.434082 505.929504 748.753967 505.929504 C 750.783875 505.929504 756.003662 501.869751 759.773499 497.229858 C 774.272888 479.25061 772.822998 479.830597 803.561707 479.830597 C 826.470703 479.830597 832.850464 480.700592 834.010437 484.180389 C 835.170349 486.500336 836.910339 488.530212 838.360229 488.530212 C 840.970154 488.530212 867.649048 471.130951 870.258911 467.651154 C 871.128906 466.491211 876.348694 462.141388 881.858459 458.081482 C 891.42804 451.121826 898.677734 441.552216 904.477478 429.082733 C 905.927429 425.892853 910.567261 419.513153 914.627075 415.16333 C 923.326721 405.883728 924.776672 389.934357 917.816895 384.134644 C 915.49707 382.104675 913.467102 378.334839 913.467102 375.434998 C 913.467102 372.825073 909.697266 366.735352 904.767456 362.095551 C 900.127686 357.45575 896.06781 352.525909 896.06781 351.075989 C 896.06781 349.916046 892.007996 343.826263 887.368164 337.446564 C 879.248535 327.296997 878.37854 324.687073 879.248535 308.157745 L 880.11853 289.888519 L 890.268066 288.438599 C 901.577637 286.698639 913.467102 277.998993 913.467102 271.039337 C 913.467102 268.429413 909.697266 262.629669 904.767456 257.989868 C 897.517822 251.030151 896.06781 247.260284 896.06781 236.240784 C 896.06781 224.931213 894.61792 221.161377 887.368164 214.201721 C 882.728394 209.56189 878.668518 203.472107 878.668518 200.282227 C 878.668518 195.062439 816.611145 131.845154 811.391357 131.845154 C 809.941467 131.845154 805.011597 128.945251 800.371826 125.465332 L 791.962158 119.37561 L 822.120911 87.766968 C 848.509766 60.798035 852.569641 54.998291 852.569641 46.878662 C 852.569641 36.439087 848.799805 31.799316 832.270508 23.969604 C 824.730835 20.199768 811.681335 18.459839 782.972534 17.589844 C 733.674622 15.559937 730.774719 15.559937 689.306458 17.589844 L 655.377869 19.039795 L 652.767944 12.080078 C 651.028015 8.020264 648.418091 3.960388 646.968201 2.800476 C 645.228271 1.930542 643.77832 -3.289246 643.77832 -8.509094 C 643.77832 -14.01886 641.748413 -19.818542 639.428528 -21.848511 C 636.818665 -24.168396 635.078674 -30.258179 635.078674 -37.797791 C 635.078674 -46.207458 633.628784 -50.84729 630.728882 -52.007263 C 628.408997 -52.877197 626.379028 -56.647095 626.379028 -60.706909 C 626.379028 -64.476685 624.349182 -68.246521 622.029236 -69.406555 C 619.129395 -70.276489 617.679382 -74.916321 617.679382 -82.166016 C 617.679382 -88.835693 615.939514 -95.215454 613.32959 -97.245361 C 611.009705 -99.275269 608.979736 -105.075073 608.979736 -110.2948 C 608.979736 -115.514648 606.94989 -121.314331 604.629944 -123.344299 C 602.310059 -125.374207 600.280151 -130.883972 600.280151 -135.523743 C 600.280151 -140.163574 598.540222 -144.513428 595.930298 -145.383423 C 593.030457 -146.543335 591.580505 -151.183105 591.580505 -158.142822 C 591.580505 -164.232544 589.550598 -170.612305 587.230652 -172.642273 C 584.910828 -174.672058 582.880859 -181.05188 582.880859 -187.141602 C 582.880859 -194.101318 581.430908 -198.741211 578.531006 -199.901123 C 576.211182 -200.770996 574.181213 -204.540833 574.181213 -208.020813 C 574.181213 -211.790649 572.151306 -217.300415 569.831421 -220.200256 C 567.511536 -223.390137 565.481567 -230.92981 565.481567 -237.019531 C 565.481567 -244.269165 564.031677 -248.909058 561.131775 -249.779053 C 558.231934 -250.939026 556.781921 -255.578735 556.781921 -263.988464 C 556.781921 -272.398071 555.332031 -277.037903 552.432129 -278.197876 C 550.112244 -279.067749 548.082275 -282.837646 548.082275 -286.607422 C 548.082275 -290.667358 546.052429 -295.307129 543.732483 -297.337036 C 541.412598 -299.366943 539.38269 -305.166626 539.38269 -310.096436 C 539.38269 -315.026367 537.352783 -321.696045 535.032837 -324.595825 C 532.712952 -327.785767 530.683044 -334.455444 530.683044 -339.675293 C 530.683044 -344.605103 528.653137 -350.404907 526.333191 -352.434692 C 524.013367 -354.4646 521.983398 -358.234497 521.983398 -360.84436 C 521.983398 -363.744263 519.953491 -368.384155 517.633545 -371.573975 C 515.313721 -374.473877 513.283752 -381.723511 513.283752 -387.523315 C 513.283752 -393.32312 511.253876 -399.702759 508.933929 -401.732666 C 506.324066 -403.762695 504.584106 -410.142334 504.584106 -416.522095 C 504.584106 -422.321899 502.55423 -429.281616 500.234283 -431.891357 C 497.914429 -434.211426 495.88446 -438.561157 495.88446 -441.751099 C 495.88446 -444.940796 493.854584 -449.000732 491.534637 -451.03064 C 489.214783 -453.060547 487.184845 -459.440308 487.184845 -465.240112 C 487.184845 -471.039795 485.734924 -477.419556 483.995026 -479.159424 C 482.255035 -480.899414 479.935181 -486.699097 478.775177 -492.208862 C 477.325256 -498.878662 475.005402 -502.068604 470.655579 -502.64856 C 467.17572 -503.228516 462.825897 -505.54834 461.085907 -507.868286 C 459.05603 -510.18811 453.256287 -511.928101 448.036469 -511.928101 C 442.816681 -511.928101 437.016968 -513.668091 435.276978 -515.987915 C 432.957123 -518.597778 423.967499 -520.337769 408.598114 -521.207764 C 390.618866 -521.78772 384.239166 -523.237549 381.629242 -527.297485 C 378.149384 -531.647339 372.34964 -532.227295 333.201263 -531.937256 C 293.182922 -531.647339 287.963135 -531.067383 283.613312 -526.137573 Z M 349.440582 204.342041 C 351.760468 208.111938 343.640839 211.301819 337.551086 208.981873 C 331.751312 206.661987 334.941193 201.442261 342.190887 201.442261 C 345.090759 201.442261 348.570618 202.892151 349.440582 204.342041 Z M 329.141418 233.340881 C 330.011383 234.790802 334.651215 236.240784 339.291016 236.240784 C 343.640839 236.240784 347.990662 238.27066 349.150604 240.590607 C 350.020569 242.910461 352.630463 244.94043 355.240356 244.94043 C 365.099945 244.94043 374.089539 253.930054 374.089539 263.499634 C 374.089539 275.099182 372.059662 277.419037 365.389923 273.939178 C 361.620087 271.909302 359.300171 272.489258 356.690308 275.38916 C 354.66037 277.709015 350.020569 279.738983 346.54071 279.738983 C 342.770844 279.738983 339.291016 281.76886 338.131042 284.088806 C 337.261108 286.408661 333.201263 288.438599 329.141418 288.438599 C 325.081604 288.438599 321.891754 289.888519 321.891754 291.33844 C 321.891754 293.07843 320.151825 295.108307 317.831909 295.978241 C 312.612091 298.008209 295.792816 285.828705 295.792816 280.028961 C 295.792816 277.709015 293.762909 273.6492 291.443024 271.039337 C 287.383179 266.689514 287.383179 265.819489 291.443024 262.339691 C 293.762909 260.309753 295.792816 256.539886 295.792816 253.930054 C 295.792816 246.39035 314.642029 230.730957 323.921661 230.440979 C 325.66156 230.440979 328.271484 231.601013 329.141418 233.340881 Z M 171.967987 249.580231 C 177.187744 252.190063 183.277496 255.379974 185.597412 256.539886 C 188.497269 257.989868 190.237213 263.789612 190.817169 273.069214 C 191.397171 284.378784 190.527191 288.438599 185.88739 292.498444 C 178.347717 299.45813 172.837936 295.688263 175.157837 285.248718 C 176.897766 276.259094 169.938065 266.979492 158.62854 263.499634 C 151.088837 261.179688 140.939255 273.359192 145.579086 278.868958 C 147.318985 280.898895 148.478958 287.858643 148.478958 293.948364 C 148.188965 301.778046 149.638885 305.837891 152.828766 307.287811 C 156.30864 308.447754 156.598618 309.897736 154.56871 311.927612 C 150.798859 315.697449 143.549164 309.02771 135.719482 295.108307 C 129.339737 284.088806 129.049759 274.229156 134.849533 272.19928 C 137.169434 271.039337 139.199341 267.559479 139.199341 263.789612 C 139.199341 259.439789 142.389191 255.089966 148.768936 251.030151 C 160.078461 243.780426 160.658463 243.780426 171.967987 249.580231 Z M 474.425354 262.339691 C 483.414978 271.909302 492.98465 279.738983 495.304504 279.738983 C 506.614075 279.738983 519.373535 304.677887 510.673889 310.187714 C 505.454132 313.377533 499.364349 329.036896 500.81427 335.126617 C 503.134186 342.956299 494.144562 350.786011 488.344849 346.14621 C 484.285004 342.956299 477.035278 345.856201 466.595734 354.555847 C 461.665894 358.615692 461.085907 363.255493 461.085907 391.964264 C 461.085907 423.28299 461.375916 425.022919 467.755676 427.922791 C 482.255035 434.592499 488.634827 439.2323 488.924805 444.16214 C 489.214783 447.061981 490.374725 451.701782 491.534637 454.601685 C 492.694641 457.791565 492.404663 461.271362 490.374725 463.301331 C 488.634827 465.041229 487.184845 474.61087 487.184845 484.760437 C 487.184845 498.389862 486.024902 503.609619 482.835022 504.769562 C 479.645203 506.219543 478.485199 511.729309 478.485199 527.968628 C 478.485199 545.077881 479.355225 549.427673 482.835022 549.427673 C 486.024902 549.427673 487.184845 546.237854 487.184845 538.408203 C 487.184845 530.288513 489.504761 525.648682 495.88446 519.268982 C 500.81427 514.62915 504.584106 509.699341 504.584106 508.249451 C 504.584106 502.739685 523.723328 480.120636 527.783203 480.700592 C 531.263 481.280579 531.843018 485.050415 531.263 497.229858 C 530.683044 510.859344 529.233093 514.339233 521.983398 520.718933 C 517.053589 524.778748 513.283752 530.288513 513.283752 533.188416 C 513.283752 535.798279 511.253876 538.698181 508.933929 539.568115 C 506.614075 540.728027 504.584106 544.497925 504.584106 548.5578 C 504.584106 552.617554 500.81427 560.737244 495.88446 566.826965 C 491.244659 572.916748 487.184845 579.296448 487.184845 580.74646 C 487.184845 582.486328 479.355225 590.606018 470.075531 598.725708 C 460.505951 607.135376 452.386292 616.704956 451.806305 619.894775 C 451.226349 623.374634 448.036469 626.854553 444.556671 627.724426 C 441.076782 628.594421 435.566986 632.654236 432.087158 637.004028 C 427.737366 642.513794 423.097534 645.123718 417.29776 645.123718 C 411.787994 645.123718 408.888092 646.573669 408.888092 649.473511 C 408.888092 651.793518 406.858215 653.823364 404.538269 653.823364 C 402.218414 653.823364 400.188446 651.793518 400.188446 649.473511 C 400.188446 647.153687 402.218414 645.123718 404.538269 645.123718 C 407.148193 645.123718 408.888092 642.513794 408.888092 638.454041 C 408.888092 634.394226 412.36795 629.174438 417.587738 625.404541 C 422.517517 621.634705 426.287354 616.994995 426.287354 614.965027 C 426.287354 612.645142 428.317322 610.325134 430.637177 609.165222 C 433.247101 608.295349 434.987 603.945496 434.987 597.855652 C 434.987 592.345947 437.016968 586.256226 439.336823 584.226257 C 441.656769 582.196411 443.686646 578.716492 443.686646 576.106628 C 443.686646 573.786682 446.006592 569.146912 448.616425 566.247009 C 452.966248 561.3172 452.966248 559.577332 449.776428 551.457642 C 447.456482 546.237854 445.136627 537.828247 444.556671 532.608459 C 443.106689 523.618835 434.987 518.978943 434.987 527.388672 C 434.987 529.418579 432.957123 532.898438 430.637177 534.928345 C 428.317322 536.958252 426.287354 542.468018 426.287354 547.107788 C 426.287354 551.74762 424.547455 556.097412 421.937561 556.967407 C 419.617676 558.127319 417.587738 561.027283 417.587738 563.927124 C 417.587738 566.826965 415.557831 570.596802 413.237915 572.62677 C 410.91803 574.656738 408.888092 579.876404 408.888092 584.226257 C 408.888092 588.57605 407.148193 592.925903 404.828247 593.795898 C 402.508392 594.665771 400.188446 598.435791 399.60849 602.205505 C 399.028534 605.975342 396.41861 609.165222 392.938812 609.745178 C 389.748901 610.325134 385.979065 612.355103 384.239166 614.094971 C 382.789185 616.124939 376.119476 619.894775 370.029694 622.794678 C 363.939972 625.69458 356.110291 631.204346 352.920441 635.26416 C 349.73056 639.324036 344.510803 643.963745 341.030914 645.413757 C 337.841064 646.863586 332.621307 649.76355 329.721405 651.503479 C 325.371582 654.693359 323.921661 654.40332 320.731781 650.343567 C 317.831909 646.283752 312.612091 645.123718 299.852661 645.123718 C 286.223206 645.123718 281.583405 643.963745 277.52356 639.324036 C 273.463745 634.394226 273.173737 632.364319 276.073639 627.724426 C 280.71347 620.474792 289.413086 617.284912 293.762909 621.634705 C 299.272675 627.14447 301.302582 625.114502 297.822754 617.864868 C 293.472931 609.165222 283.90332 605.975342 279.553497 611.775146 C 277.813568 614.094971 274.913696 616.124939 272.883759 616.124939 C 268.823944 616.124939 268.533936 602.495544 272.883759 600.175659 C 274.623688 599.015625 275.203674 596.115784 274.33371 593.795898 C 272.013824 587.996094 280.71347 575.526611 287.093201 575.526611 C 289.993073 575.526611 293.762909 573.496704 295.792816 571.176758 C 297.822754 568.566895 305.942383 566.826965 318.411865 566.247009 C 337.261108 565.377075 343.350861 561.027283 330.59137 558.127319 C 327.111511 557.257446 324.211639 555.227478 323.921661 553.777527 C 323.051666 548.5578 340.450958 548.847717 350.020569 553.777527 C 355.240356 556.67749 361.330109 558.127319 363.939972 556.967407 C 369.449738 554.9375 367.129822 549.427673 360.750122 549.427673 C 358.140228 549.427673 351.760468 545.947876 346.54071 541.888062 C 337.261108 534.928345 335.811157 534.638306 326.241577 538.118164 C 317.251953 541.598083 313.772064 541.308105 302.172577 537.24823 C 289.993073 532.898438 287.963135 532.608459 281.873383 536.668274 C 273.753754 541.888062 269.693909 539.858154 269.693909 530.288513 C 269.693909 523.908813 270.853851 523.328735 282.163361 523.328735 C 288.833099 523.328735 296.952759 521.298889 299.852661 518.978943 C 303.622498 516.079102 312.322113 514.62915 325.081604 514.62915 C 338.711029 514.62915 345.380737 513.469238 347.990662 510.279297 C 350.020569 507.959442 353.500397 505.929504 355.530334 505.929504 C 357.85022 505.929504 359.590179 503.899597 359.590179 501.579681 C 359.590179 498.099854 352.630463 497.229858 319.861816 496.649902 L 279.843475 495.780029 L 278.973511 487.660339 C 278.393555 483.310516 276.363647 479.830597 273.753754 479.830597 C 268.243958 479.830597 268.533936 467.071167 274.043732 462.431305 C 276.363647 460.401428 278.393555 455.761627 278.393555 452.28183 C 278.393555 448.80188 280.423462 444.16214 282.743378 442.132202 C 285.063263 440.102325 287.093201 437.202423 287.093201 435.462433 C 287.093201 432.8526 293.182922 425.602875 313.772064 404.723724 C 318.121887 400.083923 320.731781 395.7341 319.861816 394.574158 C 315.511993 390.224365 305.072449 393.414246 297.242737 401.533905 C 289.413086 409.653564 287.383179 410.233551 267.664001 410.233551 C 245.624924 410.233551 232.865448 415.16333 224.745773 427.052856 C 221.2659 431.692657 221.2659 434.592499 224.165802 442.42218 C 226.195724 447.932007 229.385574 453.441742 231.415497 454.601685 C 233.155426 455.761627 234.89537 462.141388 234.89537 468.23111 C 234.89537 474.320831 236.345276 480.410614 237.795227 481.280579 C 242.725021 484.470459 240.985077 487.950256 234.315369 489.11026 C 229.385574 489.690216 227.355667 492.300079 226.775696 497.809875 C 225.615723 506.7995 219.235992 508.539429 216.336121 500.709778 C 213.726242 494.040039 207.346497 483.020477 203.286667 478.960693 C 201.546722 477.220734 200.096817 470.841034 200.096817 465.041229 C 200.096817 459.241486 198.066895 452.861786 195.746994 450.831848 C 193.427094 448.80188 191.397171 443.582184 191.397171 439.2323 C 191.397171 434.592499 188.207291 428.212799 182.69754 422.993011 C 176.027817 416.323273 173.997894 411.97345 173.997894 402.693848 C 173.997894 395.7341 172.257965 389.064423 169.648087 387.034454 C 167.328171 385.004578 165.298264 381.814697 165.298264 379.784821 C 165.298264 377.754852 163.268341 375.434998 160.948441 374.274994 C 156.018616 372.535095 155.148666 359.195648 159.788467 356.585724 C 161.238419 355.425812 163.848312 351.365967 165.298264 347.5961 C 167.328171 342.956299 170.228043 340.636444 175.157837 340.636444 C 178.927689 340.636444 182.69754 338.606476 183.857468 336.286621 C 184.727448 333.966675 187.627319 331.936798 190.527191 331.936798 C 193.427094 331.936798 203.576645 324.107117 213.146271 314.537537 C 231.125519 296.558289 237.215271 293.948364 243.595001 301.488068 C 245.624924 303.807953 248.814774 305.837891 250.844696 305.837891 C 252.874603 305.837891 256.064453 307.867767 258.094391 310.187714 C 260.124298 312.507568 264.764099 314.537537 268.823944 314.537537 C 272.593781 314.537537 276.363647 316.567413 277.233582 318.88736 C 278.393555 321.207214 281.583405 323.237152 285.063263 323.237152 C 288.253113 323.237152 293.472931 325.557037 296.372803 328.166962 C 303.912476 334.836639 362.200043 334.546661 365.96991 327.586975 C 367.419861 325.267059 370.899719 323.237152 373.799561 323.237152 C 376.699463 323.237152 380.759308 321.207214 382.789185 318.88736 C 384.819122 316.567413 388.299011 314.537537 390.618866 314.537537 C 395.548645 314.537537 434.987 275.679138 434.987 270.459381 C 434.987 268.429413 439.046844 262.919678 443.686646 258.279877 C 448.616425 253.640076 452.386292 248.710266 452.386292 247.260284 C 452.386292 241.750549 458.766052 246.100372 474.425354 262.339691 Z M 119.190155 360.645569 C 122.960007 363.545471 128.759781 366.445374 131.949631 367.02533 C 135.139511 367.895294 138.039383 370.795197 138.619339 373.985016 C 139.199341 377.174896 141.519241 381.234741 143.549164 382.684662 C 149.638885 387.614441 150.508865 450.831848 144.709106 450.831848 C 142.679184 450.831848 138.329361 447.641937 134.55954 443.582184 C 129.919708 438.652313 124.699936 436.332458 118.03022 436.332458 C 104.400795 436.332458 98.601021 427.052856 96.571106 401.243927 C 95.121155 383.844635 95.701157 378.914795 101.210907 367.895294 C 104.690781 360.935547 108.75061 355.135803 109.910545 355.135803 C 111.360497 355.135803 115.420334 357.45575 119.190155 360.645569 Z M 269.693909 486.790314 C 269.693909 493.750061 263.0242 503.029663 258.384369 503.029663 C 255.484497 503.029663 245.044922 491.720093 246.784851 490.560181 C 261.864227 478.380737 269.693909 477.220734 269.693909 486.790314 Z M 260.994293 526.22876 C 260.994293 527.678589 258.384369 531.738525 255.194504 534.928345 C 244.754944 545.36792 238.665176 540.148071 248.814774 529.418579 C 254.324554 523.328735 260.994293 521.588867 260.994293 526.22876 Z M 550.402222 525.938721 C 553.592102 527.968628 553.592102 528.548584 550.112244 529.998535 C 545.472473 531.738525 542.282593 529.998535 542.282593 525.648682 C 542.282593 522.748779 545.472473 522.748779 550.402222 525.938721 Z M 260.994293 623.374634 C 260.994293 625.69458 258.964355 627.724426 256.64447 627.724426 C 254.324554 627.724426 252.294647 625.69458 252.294647 623.374634 C 252.294647 621.054749 254.324554 619.02478 256.64447 619.02478 C 258.964355 619.02478 260.994293 621.054749 260.994293 623.374634 Z M 364.809937 674.412476 C 364.22998 676.152405 362.490021 677.312317 361.040131 677.312317 C 359.590179 677.312317 357.85022 676.152405 357.270264 674.412476 C 356.690308 672.672607 358.430206 671.222595 361.040131 671.222595 C 363.649994 671.222595 365.389923 672.672607 364.809937 674.412476 Z M 311.742157 708.921143 C 314.062042 712.690979 305.942383 715.880859 299.852661 713.560852 C 294.052887 711.241028 297.242737 706.021179 304.492462 706.021179 C 307.392334 706.021179 310.872192 707.47113 311.742157 708.921143 Z" />
            <path id="path1" fill="#000000" stroke="none" d="M 306.5224 255.669952 C 299.852661 262.049713 312.322113 279.738983 323.921661 279.738983 C 329.721405 279.738983 339.291016 271.329315 339.291016 266.109558 C 339.291016 257.119873 313.192108 248.710266 306.5224 255.669952 Z" />
        </g>
    </g>
</svg>
